<svg width="229" height="110" viewBox="0 0 229 110" fill="none" xmlns="http://www.w3.org/2000/svg">
<path d="M6.45273 73V36H21.7027C24.7361 36 27.2527 36.6 29.2527 37.8C31.2861 39 32.8027 40.55 33.8027 42.45C34.8361 44.3167 35.3527 46.2667 35.3527 48.3C35.3527 50.4 34.8361 52.4 33.8027 54.3C32.8027 56.1667 31.2861 57.7 29.2527 58.9C27.2527 60.1 24.7361 60.7 21.7027 60.7H14.1527V73H6.45273ZM21.7027 42.75H14.1527V54H21.7027C23.0027 54 24.0861 53.7333 24.9527 53.2C25.8194 52.6333 26.4694 51.9333 26.9027 51.1C27.3694 50.2333 27.6027 49.3167 27.6027 48.35C27.6027 47.4167 27.3694 46.5167 26.9027 45.65C26.4694 44.7833 25.8194 44.0833 24.9527 43.55C24.0861 43.0167 23.0027 42.75 21.7027 42.75ZM49.8699 46C51.5699 46 52.9699 46.2833 54.0699 46.85C55.1699 47.3833 56.0033 47.9667 56.5699 48.6C57.1699 49.2333 57.5366 49.6667 57.6699 49.9H58.0699V46.5H65.6699V73H58.0699V69.6H57.6699C57.5366 69.8333 57.1699 70.2667 56.5699 70.9C56.0033 71.5333 55.1699 72.1333 54.0699 72.7C52.9699 73.2333 51.5699 73.5 49.8699 73.5C47.9033 73.5 46.1866 73.1167 44.7199 72.35C43.2866 71.55 42.0866 70.5 41.1199 69.2C40.1533 67.8667 39.4199 66.3833 38.9199 64.75C38.4533 63.1167 38.2199 61.45 38.2199 59.75C38.2199 58.05 38.4533 56.3833 38.9199 54.75C39.4199 53.1167 40.1533 51.65 41.1199 50.35C42.0866 49.0167 43.2866 47.9667 44.7199 47.2C46.1866 46.4 47.9033 46 49.8699 46ZM52.0699 52.15C50.7033 52.15 49.5533 52.5333 48.6199 53.3C47.7199 54.0333 47.0366 54.9833 46.5699 56.15C46.1366 57.3167 45.9199 58.5167 45.9199 59.75C45.9199 60.9833 46.1366 62.1833 46.5699 63.35C47.0366 64.5167 47.7199 65.4833 48.6199 66.25C49.5533 66.9833 50.7033 67.35 52.0699 67.35C53.4366 67.35 54.5699 66.9833 55.4699 66.25C56.4033 65.4833 57.0866 64.5167 57.5199 63.35C57.9866 62.1833 58.2199 60.9833 58.2199 59.75C58.2199 58.5167 57.9866 57.3167 57.5199 56.15C57.0866 54.9833 56.4033 54.0333 55.4699 53.3C54.5699 52.5333 53.4366 52.15 52.0699 52.15ZM71.4801 73V46.5H79.0301V50.35H79.2801C79.5801 49.65 79.9967 48.9667 80.5301 48.3C81.0634 47.6333 81.7967 47.0833 82.7301 46.65C83.6634 46.2167 84.8634 46 86.3301 46C87.0634 46 87.6467 46.05 88.0801 46.15C88.5134 46.2167 88.7301 46.25 88.7301 46.25V53.75C88.7301 53.75 88.4801 53.7 87.9801 53.6C87.5134 53.5 86.8967 53.45 86.1301 53.45C83.7634 53.45 81.9967 54.1 80.8301 55.4C79.6634 56.6667 79.0801 58.75 79.0801 61.65V73H71.4801ZM93.4156 73V35H101.016V56.9L109.766 46.5H118.416L108.016 58.6L118.866 73H109.916L101.016 61.1V73H93.4156Z" fill="black"/>
<path d="M127.193 73V36H134.893V50.75H149.293V36H156.993V73H149.293V57.45H134.893V73H127.193ZM171.564 73.5C169.697 73.5 168.147 73.1 166.914 72.3C165.714 71.5 164.814 70.4333 164.214 69.1C163.614 67.7333 163.314 66.2 163.314 64.5V46.5H170.864V63C170.864 64.2667 171.197 65.3 171.864 66.1C172.531 66.8667 173.514 67.25 174.814 67.25C175.914 67.25 176.781 66.9833 177.414 66.45C178.081 65.9167 178.564 65.2333 178.864 64.4C179.164 63.5667 179.314 62.6833 179.314 61.75V46.5H186.914V73H179.314V69.25H179.014C178.447 70.2833 177.564 71.25 176.364 72.15C175.197 73.05 173.597 73.5 171.564 73.5ZM209.009 73.5C207.309 73.5 205.909 73.2333 204.809 72.7C203.709 72.1333 202.859 71.5333 202.259 70.9C201.692 70.2667 201.325 69.8333 201.159 69.6H200.809V73H193.209V35H200.809V49.9H201.159C201.325 49.6667 201.692 49.2333 202.259 48.6C202.859 47.9667 203.709 47.3833 204.809 46.85C205.909 46.2833 207.309 46 209.009 46C210.975 46 212.675 46.4 214.109 47.2C215.575 47.9667 216.792 49.0167 217.759 50.35C218.725 51.65 219.442 53.1167 219.909 54.75C220.409 56.3833 220.659 58.05 220.659 59.75C220.659 61.45 220.409 63.1167 219.909 64.75C219.442 66.3833 218.725 67.8667 217.759 69.2C216.792 70.5 215.575 71.55 214.109 72.35C212.675 73.1167 210.975 73.5 209.009 73.5ZM206.809 67.35C208.175 67.35 209.309 66.9833 210.209 66.25C211.142 65.4833 211.825 64.5167 212.259 63.35C212.725 62.1833 212.959 60.9833 212.959 59.75C212.959 58.5167 212.725 57.3167 212.259 56.15C211.825 54.9833 211.142 54.0333 210.209 53.3C209.309 52.5333 208.175 52.15 206.809 52.15C205.442 52.15 204.292 52.5333 203.359 53.3C202.459 54.0333 201.775 54.9833 201.309 56.15C200.875 57.3167 200.659 58.5167 200.659 59.75C200.659 60.9833 200.875 62.1833 201.309 63.35C201.775 64.5167 202.459 65.4833 203.359 66.25C204.292 66.9833 205.442 67.35 206.809 67.35Z" fill="black"/>
<path d="M127.193 73H126.693V73.5H127.193V73ZM127.193 36V35.5H126.693V36H127.193ZM134.893 36H135.393V35.5H134.893V36ZM134.893 50.75H134.393V51.25H134.893V50.75ZM149.293 50.75V51.25H149.793V50.75H149.293ZM149.293 36V35.5H148.793V36H149.293ZM156.993 36H157.493V35.5H156.993V36ZM156.993 73V73.5H157.493V73H156.993ZM149.293 73H148.793V73.5H149.293V73ZM149.293 57.45H149.793V56.95H149.293V57.45ZM134.893 57.45V56.95H134.393V57.45H134.893ZM134.893 73V73.5H135.393V73H134.893ZM127.693 73V36H126.693V73H127.693ZM127.193 36.5H134.893V35.5H127.193V36.5ZM134.393 36V50.75H135.393V36H134.393ZM134.893 51.25H149.293V50.25H134.893V51.25ZM149.793 50.75V36H148.793V50.75H149.793ZM149.293 36.5H156.993V35.5H149.293V36.5ZM156.493 36V73H157.493V36H156.493ZM156.993 72.5H149.293V73.5H156.993V72.5ZM149.793 73V57.45H148.793V73H149.793ZM149.293 56.95H134.893V57.95H149.293V56.95ZM134.393 57.45V73H135.393V57.45H134.393ZM134.893 72.5H127.193V73.5H134.893V72.5ZM166.914 72.3L166.637 72.7161L166.642 72.7195L166.914 72.3ZM164.214 69.1L163.756 69.301L163.758 69.3052L164.214 69.1ZM163.314 46.5V46H162.814V46.5H163.314ZM170.864 46.5H171.364V46H170.864V46.5ZM171.864 66.1L171.48 66.4202L171.487 66.4281L171.864 66.1ZM177.414 66.45L177.102 66.0594L177.092 66.0675L177.414 66.45ZM179.314 46.5V46H178.814V46.5H179.314ZM186.914 46.5H187.414V46H186.914V46.5ZM186.914 73V73.5H187.414V73H186.914ZM179.314 73H178.814V73.5H179.314V73ZM179.314 69.25H179.814V68.75H179.314V69.25ZM179.014 69.25V68.75H178.718L178.576 69.0096L179.014 69.25ZM176.364 72.15L176.064 71.75L176.059 71.7541L176.364 72.15ZM171.564 73C169.768 73 168.319 72.6155 167.186 71.8805L166.642 72.7195C167.976 73.5845 169.627 74 171.564 74V73ZM167.191 71.884C166.071 71.1368 165.232 70.1437 164.67 68.8948L163.758 69.3052C164.396 70.7229 165.357 71.8632 166.637 72.716L167.191 71.884ZM164.672 68.899C164.103 67.6039 163.814 66.1404 163.814 64.5H162.814C162.814 66.2596 163.125 67.8627 163.756 69.301L164.672 68.899ZM163.814 64.5V46.5H162.814V64.5H163.814ZM163.314 47H170.864V46H163.314V47ZM170.364 46.5V63H171.364V46.5H170.364ZM170.364 63C170.364 64.3574 170.723 65.5119 171.48 66.4201L172.248 65.7799C171.672 65.0881 171.364 64.176 171.364 63H170.364ZM171.487 66.4281C172.274 67.3329 173.413 67.75 174.814 67.75V66.75C173.615 66.75 172.788 66.4004 172.241 65.7719L171.487 66.4281ZM174.814 67.75C175.993 67.75 176.987 67.4636 177.736 66.8325L177.092 66.0675C176.575 66.5031 175.835 66.75 174.814 66.75V67.75ZM177.726 66.8404C178.468 66.2472 179.004 65.4862 179.335 64.5694L178.394 64.2306C178.124 64.9805 177.694 65.5861 177.102 66.0596L177.726 66.8404ZM179.335 64.5694C179.655 63.6788 179.814 62.7379 179.814 61.75H178.814C178.814 62.6287 178.673 63.4545 178.394 64.2306L179.335 64.5694ZM179.814 61.75V46.5H178.814V61.75H179.814ZM179.314 47H186.914V46H179.314V47ZM186.414 46.5V73H187.414V46.5H186.414ZM186.914 72.5H179.314V73.5H186.914V72.5ZM179.814 73V69.25H178.814V73H179.814ZM179.314 68.75H179.014V69.75H179.314V68.75ZM178.576 69.0096C178.051 69.9659 177.222 70.8815 176.064 71.75L176.664 72.55C177.906 71.6185 178.844 70.6008 179.452 69.4904L178.576 69.0096ZM176.059 71.7541C175.007 72.5651 173.528 73 171.564 73V74C173.667 74 175.387 73.5349 176.669 72.5459L176.059 71.7541ZM204.809 72.7L204.58 73.1446L204.59 73.1499L204.809 72.7ZM202.259 70.9L201.886 71.2334L201.891 71.2387L201.896 71.2439L202.259 70.9ZM201.159 69.6L201.565 69.3094L201.416 69.1H201.159V69.6ZM200.809 69.6V69.1H200.309V69.6H200.809ZM200.809 73V73.5H201.309V73H200.809ZM193.209 73H192.709V73.5H193.209V73ZM193.209 35V34.5H192.709V35H193.209ZM200.809 35H201.309V34.5H200.809V35ZM200.809 49.9H200.309V50.4H200.809V49.9ZM201.159 49.9V50.4H201.416L201.565 50.1906L201.159 49.9ZM202.259 48.6L201.896 48.2561L201.891 48.2613L201.886 48.2666L202.259 48.6ZM204.809 46.85L205.027 47.3L205.038 47.2945L204.809 46.85ZM214.109 47.2L213.865 47.6368L213.877 47.6431L214.109 47.2ZM217.759 50.35L217.354 50.6435L217.357 50.6484L217.759 50.35ZM219.909 54.75L219.428 54.8874L219.43 54.8964L219.909 54.75ZM219.909 64.75L219.43 64.6036L219.428 64.6126L219.909 64.75ZM217.759 69.2L218.16 69.4984L218.163 69.4935L217.759 69.2ZM214.109 72.35L214.344 72.7909L214.348 72.7889L214.109 72.35ZM210.209 66.25L210.524 66.6376L210.526 66.6364L210.209 66.25ZM212.259 63.35L211.794 63.1642L211.79 63.1759L212.259 63.35ZM212.259 56.15L211.79 56.3241L211.794 56.3357L212.259 56.15ZM210.209 53.3L209.884 53.6806L209.892 53.687L209.9 53.6932L210.209 53.3ZM203.359 53.3L203.674 53.6876L203.676 53.6864L203.359 53.3ZM201.309 56.15L200.844 55.9642L200.84 55.9759L201.309 56.15ZM201.309 63.35L200.84 63.5241L200.844 63.5357L201.309 63.35ZM203.359 66.25L203.034 66.6306L203.042 66.637L203.05 66.6432L203.359 66.25ZM209.009 73C207.356 73 206.038 72.7402 205.027 72.2501L204.59 73.1499C205.78 73.7265 207.261 74 209.009 74V73ZM205.038 72.2555C203.968 71.7047 203.17 71.1354 202.622 70.5561L201.896 71.2439C202.547 71.9312 203.449 72.5619 204.58 73.1445L205.038 72.2555ZM202.631 70.5666C202.062 69.93 201.714 69.5167 201.565 69.3094L200.752 69.8906C200.937 70.1499 201.322 70.6033 201.886 71.2334L202.631 70.5666ZM201.159 69.1H200.809V70.1H201.159V69.1ZM200.309 69.6V73H201.309V69.6H200.309ZM200.809 72.5H193.209V73.5H200.809V72.5ZM193.709 73V35H192.709V73H193.709ZM193.209 35.5H200.809V34.5H193.209V35.5ZM200.309 35V49.9H201.309V35H200.309ZM200.809 50.4H201.159V49.4H200.809V50.4ZM201.565 50.1906C201.714 49.9833 202.062 49.57 202.631 48.9334L201.886 48.2666C201.322 48.8967 200.937 49.3501 200.752 49.6094L201.565 50.1906ZM202.622 48.9439C203.167 48.3681 203.961 47.8167 205.027 47.2999L204.59 46.4001C203.456 46.95 202.55 47.5653 201.896 48.2561L202.622 48.9439ZM205.038 47.2945C206.045 46.7753 207.36 46.5 209.009 46.5V45.5C207.257 45.5 205.772 45.7913 204.58 46.4055L205.038 47.2945ZM209.009 46.5C210.907 46.5 212.52 46.8857 213.865 47.6366L214.352 46.7634C212.831 45.9143 211.044 45.5 209.009 45.5V46.5ZM213.877 47.6431C215.275 48.3741 216.433 49.3731 217.354 50.6435L218.163 50.0565C217.151 48.6603 215.875 47.5592 214.34 46.7569L213.877 47.6431ZM217.357 50.6484C218.286 51.8976 218.977 53.3092 219.428 54.8874L220.389 54.6126C219.907 52.9241 219.164 51.4024 218.16 50.0516L217.357 50.6484ZM219.43 54.8964C219.916 56.4825 220.159 58.0998 220.159 59.75H221.159C221.159 58.0002 220.901 56.2842 220.387 54.6036L219.43 54.8964ZM220.159 59.75C220.159 61.4002 219.916 63.0175 219.43 64.6036L220.387 64.8964C220.901 63.2158 221.159 61.4998 221.159 59.75H220.159ZM219.428 64.6126C218.977 66.1917 218.285 67.6219 217.354 68.9065L218.163 69.4935C219.165 68.1115 219.907 66.575 220.389 64.8874L219.428 64.6126ZM217.357 68.9016C216.435 70.1418 215.274 71.1446 213.869 71.9111L214.348 72.7889C215.876 71.9554 217.149 70.8582 218.16 69.4984L217.357 68.9016ZM213.873 71.9091C212.526 72.6296 210.91 73 209.009 73V74C211.04 74 212.825 73.6037 214.344 72.7909L213.873 71.9091ZM206.809 67.85C208.269 67.85 209.52 67.4561 210.524 66.6376L209.893 65.8624C209.097 66.5106 208.082 66.85 206.809 66.85V67.85ZM210.526 66.6364C211.53 65.8118 212.264 64.771 212.727 63.5241L211.79 63.1759C211.386 64.2623 210.754 65.1549 209.891 65.8636L210.526 66.6364ZM212.723 63.5357C213.213 62.3111 213.459 61.0482 213.459 59.75H212.459C212.459 60.9185 212.238 62.0556 211.794 63.1643L212.723 63.5357ZM213.459 59.75C213.459 58.4518 213.213 57.1889 212.723 55.9643L211.794 56.3357C212.238 57.4444 212.459 58.5815 212.459 59.75H213.459ZM212.727 55.9759C212.264 54.7273 211.527 53.6999 210.518 52.9068L209.9 53.6932C210.757 54.3668 211.387 55.2394 211.79 56.3241L212.727 55.9759ZM210.533 52.9194C209.528 52.0638 208.274 51.65 206.809 51.65V52.65C208.076 52.65 209.089 53.0028 209.884 53.6806L210.533 52.9194ZM206.809 51.65C205.342 51.65 204.076 52.0639 203.041 52.9136L203.676 53.6864C204.508 53.0028 205.542 52.65 206.809 52.65V51.65ZM203.043 52.9124C202.072 53.7037 201.34 54.7255 200.844 55.9643L201.773 56.3357C202.211 55.2412 202.846 54.363 203.674 53.6876L203.043 52.9124ZM200.84 55.9759C200.386 57.1978 200.159 58.4567 200.159 59.75H201.159C201.159 58.5766 201.364 57.4356 201.777 56.3241L200.84 55.9759ZM200.159 59.75C200.159 61.0433 200.386 62.3022 200.84 63.5241L201.777 63.1759C201.364 62.0644 201.159 60.9234 201.159 59.75H200.159ZM200.844 63.5357C201.339 64.7729 202.069 65.808 203.034 66.6306L203.683 65.8694C202.849 65.1587 202.211 64.2605 201.773 63.1643L200.844 63.5357ZM203.05 66.6432C204.084 67.4559 205.348 67.85 206.809 67.85V66.85C205.536 66.85 204.5 66.5107 203.668 65.8568L203.05 66.6432Z" fill="#006DFF"/>
</svg>
